#!OML:ASF H:\ManfredETheater\Project 1\Capture day 1\Session 1\subject.ASF
:FULLY-SPECIFIED
:DEGREES
109
root 2.56207 22.0914 2.88613 -181.707 -1.67694 175.769
lowerback 25.1257 -0.215509 0.145172
upperback 3.49878 -0.810819 2.76995
thorax -10.0736 -0.694426 3.34357
lowerneck -12.9617 -1.08434 -0.886299
upperneck 18.4625 0.0784402 -4.13899
head 7.84698 -0.218476 -1.18318
rclavicle 8.34896e-015 -1.59028e-014
rhumerus -23.226 -2.53612 -17.3054
rradius 38.2729
rwrist 0.498671
rhand -24.3835 -3.73212
rfingers 7.12502
rthumb 2.10695 -33.7015
lclavicle 8.34896e-015 -1.59028e-014
lhumerus -13.9228 5.34211 29.1034
lradius 63.4551
lwrist 8.83149
lhand -25.5088 -7.4518
lfingers 7.12502
lthumb 1.02013 22.5255
rfemur -49.7628 -10.9925 20.203
rtibia 53.8225
rfoot -2.511 -6.45959
rtoes -28.1924
lfemur -47.2647 0.659462 -16.84
ltibia 46.5953
lfoot -3.67948 -4.70809
ltoes -9.96727
110
root 2.54505 21.9195 2.4311 -182.125 -2.25898 175.869
lowerback 24.7223 -0.338215 0.123567
upperback 3.35694 -0.933658 2.84307
thorax -10.013 -0.733784 3.46615
lowerneck -12.966 -1.20168 -0.974262
upperneck 18.974 -0.0134235 -4.06931
head 8.01643 -0.251858 -1.15757
rclavicle -2.42517e-014 -1.27222e-014
rhumerus -25.2025 -0.81572 -16.5125
rradius 39.425
rwrist 0.230261
rhand -24.4513 -3.72947
rfingers 7.12502
rthumb 2.04147 -33.6995
lclavicle -2.42517e-014 -1.27222e-014
lhumerus -13.9048 5.20879 27.4881
lradius 63.884
lwrist 8.9078
lhand -25.6051 -7.22119
lfingers 7.12502
lthumb 0.927159 22.7565
rfemur -47.5755 -9.88746 18.9337
rtibia 50.573
rfoot -0.42055 -6.60937
rtoes -27.3674
lfemur -46.1263 0.856529 -17.2966
ltibia 46.6053
lfoot -3.45995 -4.90935
ltoes -10.11
111
root 2.52628 21.7358 1.97283 -182.572 -2.80593 176.043
lowerback 24.2848 -0.469255 0.192188
upperback 3.22796 -1.04858 2.91669
thorax -9.91995 -0.775117 3.53177
lowerneck -12.9821 -1.31286 -1.07167
upperneck 19.4826 -0.0965896 -3.98786
head 8.18841 -0.280111 -1.1256
rclavicle 4.77083e-015 -4.77083e-015
rhumerus -27.2018 0.850951 -15.9041
rradius 40.6628
rwrist -0.0426939
rhand -24.5359 -3.71766
rfingers 7.12502
rthumb 1.95975 -33.6884
lclavicle 4.77083e-015 -4.77083e-015
lhumerus -14.0971 5.0202 25.8937
lradius 64.5731
lwrist 8.96841
lhand -25.7137 -6.98802
lfingers 7.12502
lthumb 0.822234 22.9901
rfemur -45.3741 -8.64406 17.7556
rtibia 47.605
rfoot 1.39583 -6.91044
rtoes -26.6604
lfemur -44.9683 1.09286 -17.6527
ltibia 46.6336
lfoot -3.16436 -5.12412
ltoes -10.1194
112
root 2.50483 21.5299 1.50717 -183.036 -3.30811 176.291
lowerback 23.8013 -0.609502 0.349849
upperback 3.1135 -1.15862 2.99043
thorax -9.7866 -0.819905 3.54108
lowerneck -12.9963 -1.40523 -1.2022
upperneck 19.9709 -0.157083 -3.86608
head 8.35493 -0.29572 -1.07194
rclavicle 9.54166e-015 -7.95139e-015
rhumerus -29.2116 2.39251 -15.4997
rradius 41.9925
rwrist -0.394936
rhand -24.589 -3.7234
rfingers 7.12502
rthumb 1.90854 -33.6946
lclavicle 9.54166e-015 -7.95139e-015
lhumerus -14.5467 4.7804 24.3273
lradius 65.5526
lwrist 9.01234
lhand -25.8177 -6.77275
lfingers 7.12502
lthumb 0.721838 23.2058
rfemur -43.2361 -7.2817 16.6973
rtibia 44.9802
rfoot 2.91906 -7.3408
rtoes -26.1998
lfemur -43.8367 1.36486 -17.9026
ltibia 46.7073
lfoot -2.80029 -5.34843
ltoes -10.0262
113
root 2.48196 21.3207 1.04268 -183.511 -3.7543 176.594
lowerback 23.2689 -0.755115 0.577847
upperback 3.01764 -1.26588 3.06089
thorax -9.60679 -0.868579 3.50141
lowerneck -13.0542 -1.48131 -1.33663
upperneck 20.4532 -0.195728 -3.742
head 8.52904 -0.301819 -1.01457
rclavicle -8.74653e-015 2.8625e-014
rhumerus -31.218 3.73847 -15.3115
rradius 43.4022
rwrist -0.84586
rhand -24.582 -3.71128
rfingers 7.12502
rthumb 1.91527 -33.6824
lclavicle -8.74653e-015 2.8625e-014
lhumerus -15.2955 4.49164 22.7931
lradius 66.8476
lwrist 9.0362
lhand -25.915 -6.57014
lfingers 7.12502
lthumb 0.627856 23.4087
rfemur -41.1325 -5.8109 15.7737
rtibia 42.6522
rfoot 4.19334 -7.86681
rtoes -25.9816
lfemur -42.672 1.66804 -18.0636
ltibia 46.7567
lfoot -2.37913 -5.56917
ltoes -9.83458
114
root 2.45754 21.1 0.575958 -183.998 -4.13199 176.942
lowerback 22.6969 -0.900235 0.854288
upperback 2.94033 -1.36946 3.12935
thorax -9.38565 -0.91957 3.42692
lowerneck -13.1165 -1.52989 -1.48473
upperneck 20.8922 -0.201499 -3.60445
head 8.69091 -0.292699 -0.946209
rclavicle 2.46493e-014 3.18055e-014
rhumerus -33.2145 4.86018 -15.3481
rradius 44.8917
rwrist -1.40695
rhand -24.5141 -3.67664
rfingers 7.12502
rthumb 1.98081 -33.6472
lclavicle 2.46493e-014 3.18055e-014
lhumerus -16.3775 4.15526 21.299
lradius 68.4687
lwrist 9.03206
lhand -26.0036 -6.37784
lfingers 7.12502
lthumb 0.542241 23.6012
rfemur -39.1089 -4.2464 14.9952
rtibia 40.6536
rfoot 5.31092 -8.42986
rtoes -25.9308
lfemur -41.4972 2.01261 -18.143
ltibia 46.8026
lfoot -1.91878 -5.78142
ltoes -9.58581
115
root 2.4316 20.8689 0.107321 -184.484 -4.42416 177.311
lowerback 22.0821 -1.03705 1.1494
upperback 2.88268 -1.46741 3.19375
thorax -9.12002 -0.970434 3.33166
lowerneck -13.1972 -1.54963 -1.63843
upperneck 21.2829 -0.172804 -3.46575
head 8.84109 -0.269098 -0.872156
rclavicle -2.98177e-014 7.15625e-014
rhumerus -35.1868 5.74823 -15.6155
rradius 46.4516
rwrist -2.05883
rhand -24.399 -3.60006
rfingers 7.12502
rthumb 2.09198 -33.5695
lclavicle -2.98177e-014 7.15625e-014
lhumerus -17.8244 3.76441 19.8536
lradius 70.4305
lwrist 9.02147
lhand -26.12 -6.16242
lfingers 7.12502
lthumb 0.429806 23.8169
rfemur -37.1643 -2.60443 14.3569
rtibia 38.931
rfoot 6.38751 -8.96373
rtoes -25.9164
lfemur -40.2979 2.40328 -18.1622
ltibia 46.8034
lfoot -1.42128 -5.96586
ltoes -9.29045
116
root 2.40433 20.6277 -0.36255 -184.97 -4.61132 177.688
lowerback 21.4435 -1.1561 1.43985
upperback 2.84304 -1.55272 3.25566
thorax -8.82183 -1.01652 3.22976
lowerneck -13.303 -1.54193 -1.78274
upperneck 21.623 -0.111474 -3.34372
head 8.97954 -0.233071 -0.801171
rclavicle 2.16675e-014 -6.04305e-014
rhumerus -37.1332 6.42787 -16.1199
rradius 48.0841
rwrist -2.77384
rhand -24.2593 -3.50556
rfingers 7.12502
rthumb 2.22694 -33.4737
lclavicle 2.16675e-014 -6.04305e-014
lhumerus -19.6295 3.34916 18.4812
lradius 72.7026
lwrist 8.9949
lhand -26.2602 -5.90618
lfingers 7.12502
lthumb 0.294452 24.0734
rfemur -35.3178 -0.903319 13.8626
rtibia 37.5001
rfoot 7.51808 -9.36662
rtoes -25.7921
lfemur -39.0803 2.8518 -18.1326
ltibia 46.787
lfoot -0.937565 -6.10664
ltoes -8.94193
